<svg width="486" height="632" fill="none" xmlns="http://www.w3.org/2000/svg"><g filter="url(#writerFrame_svg__filter0_f_3945_84654)"><rect width="413" height="300" rx="24" transform="matrix(.86603 -.5 0 1 64 261.5)" fill="#1D6EE3" fill-opacity="0.4"/></g><rect x="0.433" y="0.25" width="412" height="299" rx="23.5" transform="matrix(.86603 -.5 0 1 64.058 261.717)" stroke="#fff" stroke-opacity="0.08"/><rect x="0.433" y="0.25" width="412" height="299" rx="23.5" transform="matrix(.86603 -.5 0 1 52.058 249.717)" stroke="#fff" stroke-opacity="0.08"/><path d="M76 297.5c0-13.255 9.306-29.373 20.785-36L412.884 79c11.479-6.627 20.784-1.255 20.784 12v252c0 13.255-9.305 29.373-20.784 36l-316.1 182.5C85.307 568.127 76 562.755 76 549.5v-252z" fill="url(#writerFrame_svg__pattern0_3945_84654)"/><defs><filter id="writerFrame_svg__filter0_f_3945_84654" x="0" y="0.161" width="485.668" height="616.177" filterUnits="userSpaceOnUse" color-interpolation-filters="sRGB"><feFlood flood-opacity="0" result="BackgroundImageFix"/><feBlend in="SourceGraphic" in2="BackgroundImageFix" result="shape"/><feGaussianBlur stdDeviation="32" result="effect1_foregroundBlur_3945_84654"/></filter></defs></svg>