<svg viewBox="0 0 80 80" fill="none" xmlns="http://www.w3.org/2000/svg"><path d="M.5 40C.5 18.185 18.185.5 40 .5S79.5 18.185 79.5 40 61.815 79.5 40 79.5.5 61.815.5 40z" stroke="#fff" stroke-opacity="0.08"/><path d="M12 40c0-15.464 12.536-28 28-28s28 12.536 28 28-12.536 28-28 28-28-12.536-28-28z" fill="#2B2D33"/><path d="M40 10c-16.569 0-30 13.431-30 30 0 16.569 13.431 30 30 30 16.569 0 30-13.431 30-30 0-16.569-13.431-30-30-30z" stroke="#fff" stroke-opacity="0.08" stroke-width="4"/><path d="M40 29.334l-1.88 1.88 7.44 7.453H29.333v2.666H45.56l-7.44 7.454 1.88 1.88L50.667 40 40 29.334z" fill="#F4F4F7"/></svg>