<svg  viewBox="0 0 32 32"  xmlns="http://www.w3.org/2000/svg">
    <path d="M10.2399 1.92001C5.65271 1.92001 1.91992 5.6528 1.91992 10.24V21.76C1.91992 26.3472 5.65271 30.08 10.2399 30.08H21.7599C26.3471 30.08 30.0799 26.3472 30.0799 21.76V10.24C30.0799 5.6528 26.3471 1.92001 21.7599 1.92001H10.2399ZM10.2399 3.20001H21.7599C25.6553 3.20001 28.7999 6.34466 28.7999 10.24V21.76C28.7999 25.6554 25.6553 28.8 21.7599 28.8H10.2399C6.34457 28.8 3.19992 25.6554 3.19992 21.76V10.24C3.19992 6.34466 6.34457 3.20001 10.2399 3.20001ZM23.6799 7.04001C23.3404 7.04001 23.0149 7.17487 22.7748 7.41492C22.5348 7.65496 22.3999 7.98054 22.3999 8.32001C22.3999 8.65949 22.5348 8.98506 22.7748 9.22511C23.0149 9.46516 23.3404 9.60001 23.6799 9.60001C24.0194 9.60001 24.345 9.46516 24.585 9.22511C24.8251 8.98506 24.9599 8.65949 24.9599 8.32001C24.9599 7.98054 24.8251 7.65496 24.585 7.41492C24.345 7.17487 24.0194 7.04001 23.6799 7.04001ZM15.9999 8.96001C12.1194 8.96001 8.95992 12.1195 8.95992 16C8.95992 19.8805 12.1194 23.04 15.9999 23.04C19.8804 23.04 23.0399 19.8805 23.0399 16C23.0399 12.1195 19.8804 8.96001 15.9999 8.96001ZM15.9999 10.24C19.1887 10.24 21.7599 12.8113 21.7599 16C21.7599 19.1888 19.1887 21.76 15.9999 21.76C12.8112 21.76 10.2399 19.1888 10.2399 16C10.2399 12.8113 12.8112 10.24 15.9999 10.24Z" fill="white" fill-opacity="0.72"/>
</svg>
