<svg width="639" height="716" fill="none" xmlns="http://www.w3.org/2000/svg"><path d="M524.544 284.5c0 175.092-141.499 317.029-316.044 317.029S-107.544 459.592-107.544 284.5c0-175.092 141.5-317.03 316.044-317.03 174.545 0 316.044 141.938 316.044 317.03z" stroke="#fff" stroke-opacity="0.08"/><path d="M580.299 284.5c0 205.893-166.462 372.799-371.799 372.799S-163.299 490.393-163.299 284.5c0-205.892 166.462-372.799 371.799-372.799S580.299 78.608 580.299 284.5z" stroke="#fff" stroke-opacity="0.08"/><path d="M637.852 284.5c0 237.687-192.229 430.368-429.352 430.368-237.124 0-429.352-192.681-429.352-430.368 0-237.687 192.228-430.368 429.352-430.368 237.123 0 429.352 192.681 429.352 430.368z" stroke="#fff" stroke-opacity="0.08"/></svg>