<svg width="589" height="276" fill="none" xmlns="http://www.w3.org/2000/svg"><path d="M.167 270a5.333 5.333 0 1110.666 0 5.333 5.333 0 11-10.666 0zM317 175l.397-.918L317 175zM578.167 6a5.333 5.333 0 1110.667 0 5.333 5.333 0 01-10.667 0zM4.93 269.179c.528-.367 1.06-.739 1.597-1.117l1.151 1.636c-.54.379-1.076.754-1.608 1.123l-1.14-1.642zm4.865-3.445c1.058-.762 2.13-1.542 3.217-2.339l1.183 1.613c-1.091.8-2.168 1.583-3.23 2.349l-1.17-1.623zm6.462-4.735a819.628 819.628 0 003.18-2.378l1.201 1.599a773.292 773.292 0 01-3.188 2.384l-1.193-1.605zm6.402-4.808c1.045-.791 2.1-1.592 3.167-2.404l1.211 1.592c-1.068.812-2.125 1.615-3.17 2.407l-1.208-1.595zm6.372-4.846l3.17-2.421 1.215 1.589-3.172 2.422-1.213-1.59zm6.362-4.859l3.188-2.432 1.212 1.59-3.186 2.432-1.214-1.59zm6.372-4.855c1.062-.807 2.133-1.619 3.213-2.436l1.207 1.595c-1.079.816-2.15 1.627-3.21 2.434l-1.21-1.593zm6.395-4.836c1.07-.804 2.146-1.611 3.232-2.422l1.197 1.602c-1.084.81-2.16 1.616-3.227 2.419l-1.202-1.599zm6.431-4.803c1.07-.793 2.147-1.589 3.233-2.387l1.184 1.612c-1.083.796-2.158 1.59-3.226 2.381l-1.19-1.606zm6.475-4.759a787.793 787.793 0 013.24-2.347l1.169 1.623a711.224 711.224 0 00-3.231 2.341l-1.178-1.617zm6.522-4.699a675.544 675.544 0 013.257-2.307l1.151 1.635c-1.089.767-2.172 1.534-3.247 2.301l-1.161-1.629zm6.55-4.61c1.096-.762 2.199-1.524 3.308-2.284l1.131 1.649a596.623 596.623 0 00-3.298 2.277l-1.141-1.642zm6.617-4.537c1.11-.749 2.225-1.497 3.347-2.244l1.108 1.665c-1.118.744-2.23 1.49-3.335 2.237l-1.12-1.658zm6.69-4.45a540.208 540.208 0 013.367-2.186l1.082 1.682a541.92 541.92 0 00-3.354 2.177l-1.095-1.673zm6.763-4.352c1.125-.711 2.256-1.42 3.392-2.125l1.054 1.7a477.725 477.725 0 00-3.377 2.115l-1.069-1.69zm6.819-4.23a497.605 497.605 0 013.442-2.073l1.024 1.719c-1.148.684-2.29 1.371-3.427 2.063l-1.039-1.709zm6.897-4.109c1.158-.675 2.32-1.345 3.488-2.011l.991 1.737c-1.163.663-2.32 1.33-3.471 2.002l-1.008-1.728zm6.984-3.98a395.84 395.84 0 013.519-1.935l.955 1.757c-1.172.637-2.34 1.279-3.501 1.925l-.973-1.747zm7.07-3.838c1.18-.624 2.364-1.242 3.554-1.855l.916 1.778a336.99 336.99 0 00-3.535 1.845l-.935-1.768zm7.139-3.674a335.674 335.674 0 013.61-1.778l.873 1.799a331.644 331.644 0 00-3.588 1.768l-.895-1.789zm7.231-3.509c1.213-.57 2.43-1.133 3.652-1.689l.828 1.821a299.013 299.013 0 00-3.628 1.678l-.852-1.81zm7.322-3.33a294.7 294.7 0 013.689-1.591l.78 1.841a315.66 315.66 0 00-3.664 1.581l-.805-1.831zm7.407-3.135a276.092 276.092 0 013.732-1.49l.728 1.863c-1.24.485-2.475.978-3.706 1.479l-.754-1.852zm7.487-2.926a254.19 254.19 0 013.783-1.384l.673 1.883c-1.256.449-2.508.907-3.755 1.374l-.701-1.873zm7.576-2.707c1.268-.432 2.541-.854 3.818-1.267l.614 1.904c-1.267.409-2.53.828-3.788 1.256l-.644-1.893zm7.661-2.474a234.19 234.19 0 013.852-1.142l.552 1.922c-1.277.368-2.551.745-3.82 1.133l-.584-1.913zm7.729-2.222c1.295-.349 2.594-.688 3.897-1.015l.488 1.94c-1.292.324-2.58.66-3.864 1.006l-.521-1.931zm7.803-1.961c1.306-.304 2.617-.597 3.931-.878l.419 1.955c-1.303.279-2.601.57-3.896.871l-.454-1.948zm7.875-1.686c1.314-.257 2.631-.502 3.952-.735l.348 1.97c-1.309.231-2.615.474-3.916.728l-.384-1.963zm7.929-1.397c1.323-.208 2.65-.404 3.981-.587l.272 1.981c-1.318.182-2.632.376-3.943.581l-.31-1.975zm7.969-1.097c1.334-.157 2.671-.302 4.012-.434l.195 1.99c-1.328.131-2.652.274-3.972.43l-.235-1.986zm8.017-.788c1.334-.104 2.672-.196 4.013-.274l.116 1.996a207.3 207.3 0 00-3.972.272l-.157-1.994zm8.047-.469a197.92 197.92 0 014.016-.112l.036 2c-1.329.023-2.654.06-3.976.111l-.076-1.999zm8.038-.143c1.344.004 2.692.021 4.043.053l-.047 1.999a198.353 198.353 0 00-4.001-.052l.005-2zm8.055.188c1.335.058 2.674.131 4.016.217l-.129 1.996a191.149 191.149 0 00-3.975-.215l.088-1.998zm8.051.52a196.6 196.6 0 013.994.384l-.211 1.989a192.677 192.677 0 00-3.954-.38l.171-1.993zm7.986.85c1.334.17 2.671.354 4.01.553l-.293 1.979c-1.326-.197-2.649-.38-3.969-.548l.252-1.984zm7.975 1.184c1.314.222 2.631.459 3.951.711l-.374 1.965c-1.307-.249-2.61-.484-3.911-.704l.334-1.972zm7.919 1.509c1.306.277 2.615.568 3.927.873l-.454 1.948a186.073 186.073 0 00-3.888-.864l.415-1.957zm7.819 1.82c1.3.33 2.602.675 3.907 1.034l-.53 1.928a209.064 209.064 0 00-3.869-1.023l.492-1.939zm7.794 2.144c1.27.377 2.542.767 3.817 1.171l-.605 1.907a203.616 203.616 0 00-3.78-1.16l.568-1.918zm7.647 2.427c1.279.433 2.56.88 3.843 1.341l-.676 1.882c-1.272-.457-2.541-.9-3.808-1.329l.641-1.894zm7.575 2.722c1.244.473 2.49.96 3.738 1.461l-.744 1.856a214.216 214.216 0 00-3.705-1.448l.711-1.869zm7.489 3.005c.626.264 1.252.532 1.879.803l-.794 1.836c-.622-.269-1.243-.535-1.863-.797l.778-1.842zm1.879.803c.636.275 1.27.548 1.903.819l-.786 1.839c-.636-.272-1.273-.546-1.911-.822l.794-1.836zm5.682 2.413c1.254.522 2.502 1.035 3.744 1.539l-.751 1.853a455.946 455.946 0 01-3.762-1.545l.769-1.847zm7.454 3.022c1.231.486 2.456.962 3.676 1.429l-.715 1.868a409.33 409.33 0 01-3.694-1.436l.733-1.861zm7.36 2.819c1.296.481 2.584.952 3.866 1.413l-.676 1.882a373.841 373.841 0 01-3.886-1.42l.696-1.875zm7.693 2.764c1.269.44 2.531.87 3.787 1.29l-.634 1.897a366.084 366.084 0 01-3.809-1.297l.656-1.89zm7.536 2.52c1.26.406 2.514.801 3.761 1.186l-.59 1.911a339.14 339.14 0 01-3.783-1.193l.612-1.904zm7.694 2.373c1.304.385 2.601.758 3.89 1.12l-.541 1.925c-1.298-.364-2.603-.74-3.915-1.127l.566-1.918zm7.736 2.173c1.274.34 2.542.669 3.802.988l-.489 1.939a315.053 315.053 0 01-3.829-.994l.516-1.933zm7.706 1.944c1.333.317 2.658.621 3.975.913l-.433 1.952c-1.327-.294-2.662-.6-4.004-.919l.462-1.946zm7.901 1.753a267.7 267.7 0 003.878.767l-.373 1.965a271.864 271.864 0 01-3.908-.773l.403-1.959zm7.762 1.473c1.355.235 2.701.456 4.037.664l-.307 1.976c-1.349-.21-2.706-.433-4.072-.67l.342-1.97zm8.021 1.249c1.318.182 2.628.351 3.929.507l-.238 1.986a226.836 226.836 0 01-3.965-.511l.274-1.982zm7.841.94c1.367.139 2.723.263 4.07.372l-.163 1.994a209.651 209.651 0 01-4.108-.376l.201-1.99zm8.079.659c1.326.082 2.643.149 3.949.203l-.082 1.998c-1.32-.054-2.65-.122-3.99-.204l.123-1.997zm7.919.324a184.7 184.7 0 004.063.036l.005 2c-1.358.003-2.727-.009-4.107-.036l.039-2zm8.06-.019c1.321-.033 2.632-.081 3.931-.144l.096 1.998c-1.315.063-2.64.112-3.977.145l-.05-1.999zm7.959-.388c1.349-.098 2.686-.212 4.011-.342l.196 1.991c-1.342.131-2.696.247-4.062.346l-.145-1.995zm7.951-.778c1.325-.164 2.637-.344 3.937-.539l.297 1.977c-1.317.198-2.647.381-3.988.547l-.246-1.985zm7.924-1.195c1.316-.235 2.619-.486 3.91-.753l.405 1.958c-1.308.271-2.63.526-3.964.764l-.351-1.969zm7.763-1.607c1.321-.312 2.627-.642 3.92-.988l.517 1.932c-1.312.351-2.637.685-3.977 1.002l-.46-1.946zm7.759-2.075c1.267-.38 2.521-.775 3.761-1.187l.63 1.898c-1.259.418-2.531.82-3.817 1.205l-.574-1.916zm7.572-2.517c1.256-.46 2.498-.937 3.726-1.43l.745 1.856a131.02 131.02 0 01-3.783 1.452l-.688-1.878zm7.372-2.959a128.386 128.386 0 003.661-1.673l.859 1.806a128.37 128.37 0 01-3.718 1.699l-.802-1.832zm7.236-3.443a126.64 126.64 0 003.498-1.871l.971 1.749c-1.17.649-2.355 1.283-3.554 1.9l-.915-1.778zm6.976-3.874a128.266 128.266 0 003.39-2.097l1.079 1.684a131.283 131.283 0 01-3.443 2.13l-1.026-1.717zm6.708-4.296a127.813 127.813 0 003.268-2.314l1.181 1.614a131.773 131.773 0 01-3.318 2.35l-1.131-1.65zm6.449-4.717a132.662 132.662 0 003.109-2.5l1.277 1.539a132.16 132.16 0 01-3.157 2.539l-1.229-1.578zm6.149-5.098c.999-.88 1.983-1.773 2.953-2.679l1.365 1.462c-.984.919-1.983 1.825-2.996 2.718l-1.322-1.501zm5.835-5.448c.948-.938 1.882-1.888 2.802-2.85l1.445 1.382c-.932.975-1.879 1.939-2.841 2.89l-1.406-1.422zm5.519-5.772c.895-.99 1.776-1.991 2.643-3.003l1.519 1.302a151.245 151.245 0 01-2.679 3.042l-1.483-1.341zm5.204-6.071a158.54 158.54 0 002.48-3.134l1.584 1.222a165.63 165.63 0 01-2.512 3.173l-1.552-1.261zm4.883-6.332a168.537 168.537 0 002.322-3.255l1.642 1.142a164.27 164.27 0 01-2.351 3.295l-1.613-1.182zm4.567-6.565a170.167 170.167 0 002.168-3.363l1.694 1.064a174.177 174.177 0 01-2.194 3.402l-1.668-1.103zm4.259-6.773a184.158 184.158 0 002.017-3.458l1.739.989a193.996 193.996 0 01-2.039 3.496l-1.717-1.027zm3.96-6.958a192.47 192.47 0 001.868-3.537l1.778.916a206.474 206.474 0 01-1.887 3.573l-1.759-.952zm3.668-7.118a205.776 205.776 0 001.727-3.612l1.812.845a213.29 213.29 0 01-1.743 3.647l-1.796-.88zm3.385-7.256c.542-1.223 1.073-2.45 1.591-3.681l1.843.778a219.913 219.913 0 01-1.606 3.713l-1.828-.81zm3.113-7.381c.498-1.243.984-2.488 1.459-3.736l1.869.712a228.424 228.424 0 01-1.472 3.768l-1.856-.744zm2.853-7.495c.453-1.255.895-2.511 1.325-3.769l1.893.648c-.435 1.268-.88 2.535-1.337 3.8l-1.881-.679zm2.597-7.584c.413-1.273.814-2.546 1.205-3.82l1.912.587a258.207 258.207 0 01-1.215 3.85l-1.902-.617zm2.348-7.656a249.75 249.75 0 001.088-3.87l1.93.526c-.355 1.299-.72 2.599-1.097 3.9l-1.921-.556zm2.111-7.733c.334-1.303.658-2.604.97-3.902l1.945.468a271.586 271.586 0 01-.978 3.932l-1.937-.498zm1.88-7.809c.294-1.303.577-2.603.849-3.9l1.957.412a271.568 271.568 0 01-.855 3.928l-1.951-.44zm1.649-7.854c.256-1.313.501-2.621.735-3.924l1.969.355c-.237 1.311-.483 2.629-.741 3.952l-1.963-.383zm1.419-7.888c.22-1.328.428-2.65.626-3.964l1.978.298c-.2 1.323-.409 2.654-.63 3.992l-1.974-.326zm1.191-7.913c.183-1.345.354-2.68.515-4.006l1.985.24c-.161 1.335-.334 2.68-.518 4.036l-1.982-.27zm.963-7.953c.145-1.355.277-2.698.398-4.029l1.992.182c-.122 1.34-.256 2.694-.401 4.059l-1.989-.212zm.731-8.002c.103-1.355.194-2.695.273-4.019l1.997.12a263.544 263.544 0 01-.276 4.05l-1.994-.151zm.482-8.014c.059-1.356.107-2.693.142-4.01l2 .054a241.587 241.587 0 01-.144 4.044l-1.998-.088zm.215-8.015c.006-.657.009-1.307.009-1.952h2c0 .65-.003 1.308-.009 1.97l-2-.018z" fill="#fff" fill-opacity="0.16"/></svg>