<svg width="486" height="632" fill="none" xmlns="http://www.w3.org/2000/svg" xmlns:xlink="http://www.w3.org/1999/xlink"><g filter="url(#producerFrame_svg__filter0_f_3945_84984)"><rect width="413" height="300" rx="24" transform="matrix(-.86603 -.5 0 1 422 261.5)" fill="#1D6EE3" fill-opacity="0.4"/></g><rect x="-0.433" y="0.25" width="412" height="299" rx="23.5" transform="matrix(-.86603 -.5 0 1 421.192 261.283)" stroke="#fff" stroke-opacity="0.08"/><rect x="-0.433" y="0.25" width="412" height="299" rx="23.5" transform="matrix(-.86603 -.5 0 1 433.192 249.283)" stroke="#fff" stroke-opacity="0.08"/><rect width="413" height="300" rx="24" transform="matrix(-.86603 -.5 0 1 410 273.5)" fill="url(#producerFrame_svg__pattern0_3945_84984)"/><rect x="-0.433" y="0.25" width="412" height="299" rx="23.5" transform="matrix(-.86603 -.5 0 1 409.192 273.283)" stroke="#fff" stroke-opacity="0.08"/><defs><pattern id="producerFrame_svg__pattern0_3945_84984" patternContentUnits="objectBoundingBox" width="1" height="1"><use xmlns:xlink="http://www.w3.org/1999/xlink" xlink:href="#producerFrame_svg__image0_3945_84984" transform="matrix(.00098 0 0 .00134 0 -.188)"/></pattern><filter id="producerFrame_svg__filter0_f_3945_84984" x="0.331" y="0.161" width="485.669" height="616.177" filterUnits="userSpaceOnUse" color-interpolation-filters="sRGB"><feFlood flood-opacity="0" result="BackgroundImageFix"/><feBlend in="SourceGraphic" in2="BackgroundImageFix" result="shape"/><feGaussianBlur stdDeviation="32" result="effect1_foregroundBlur_3945_84984"/></filter></defs></svg>