<svg viewBox="0 0 1440 1223" fill="none" xmlns="http://www.w3.org/2000/svg"><path d="M873.5 210.648a13.5 13.5 0 0112.133-13.431l482.997-49.151c7.96-.809 14.87 5.435 14.87 13.431v388.126c0 7.955-6.84 14.185-14.76 13.441l-483.003-45.37c-6.936-.651-12.237-6.474-12.237-13.441V210.648z" stroke="#fff" stroke-opacity="0.08"/><path d="M883.5 206.598c0-11.481 8.645-21.121 20.06-22.367l467-50.952c13.31-1.453 24.94 8.974 24.94 22.367v399.921c0 13.318-11.5 23.722-24.75 22.387l-467.005-47.033c-11.495-1.158-20.245-10.834-20.245-22.387V206.598z" stroke="#fff" stroke-opacity="0.08"/></svg>