<svg viewBox="0 0 32 32" xmlns="http://www.w3.org/2000/svg" width="32" height="32"><path d="M10.24 1.92c-4.587 0-8.32 3.733-8.32 8.32v11.52c0 4.587 3.733 8.32 8.32 8.32h11.52c4.587 0 8.32-3.733 8.32-8.32V10.24c0-4.587-3.733-8.32-8.32-8.32H10.24zm0 1.28h11.52a7.03 7.03 0 017.04 7.04v11.52a7.03 7.03 0 01-7.04 7.04H10.24a7.03 7.03 0 01-7.04-7.04V10.24a7.03 7.03 0 017.04-7.04zm13.44 3.84a1.28 1.28 0 100 2.56 1.28 1.28 0 000-2.56zM16 8.96c-3.88 0-7.04 3.16-7.04 7.04s3.16 7.04 7.04 7.04 7.04-3.16 7.04-7.04S19.88 8.96 16 8.96zm0 1.28A5.75 5.75 0 0121.76 16 5.75 5.75 0 0116 21.76 5.75 5.75 0 0110.24 16 5.75 5.75 0 0116 10.24z" fill="#fff" fill-opacity="0.72"/></svg>