<svg xmlns="http://www.w3.org/2000/svg" viewBox="0 0 32 33" fill="none">
    <path d="M3.2 0.928711C1.4425 0.928711 0 2.37121 0 4.12871L0 29.7998C0 31.5573 1.4425 32.9998 3.2 32.9998H28.8C30.5575 32.9998 32 31.5573 32 29.7998V4.12871C32 2.37121 30.5575 0.928711 28.8 0.928711H3.2ZM3.2 1.88873H28.8C29.86 1.88873 31.1111 3.06871 31.1111 4.12871V29.7998C31.1111 30.8598 29.86 32.1109 28.8 32.1109H3.2C2.14 32.1109 0.888889 30.8598 0.888889 29.7998V4.12871C0.888889 3.06871 2.14 1.88873 3.2 1.88873ZM5.44 12.7087V21.2087H7.48V12.7087H5.44ZM8.58 12.7087V21.2087H10.44V16.4087L11.26 21.2087H12.54L13.44 16.4087V21.2087H15.16V12.7087H12.36L11.9 16.7287L11.2 12.7087H8.58ZM21.88 12.7087V21.2087H23.62C23.62 21.2087 23.7525 20.7037 23.88 20.7687C24.0075 20.8337 24.7675 21.1487 25.28 21.1487C25.7925 21.1487 25.985 21.0937 26.24 21.0287C26.56 20.8362 26.68 20.5737 26.68 20.1887V15.2687C26.745 14.5012 25.975 14.1137 25.4 14.0487C24.825 14.0487 24.255 14.3737 24 14.6287V12.7087H21.88ZM16.26 12.7687V21.2887H18.56C19.905 21.2887 20.36 21.1487 20.68 20.8287C21 20.5087 21.24 20.1212 21.24 19.6087V14.4887C21.24 13.7837 21.065 13.4037 20.68 13.1487C20.295 12.8937 19.9675 12.7687 18.56 12.7687H16.26ZM18.3 14.0487C18.685 14.0487 19.08 13.9812 19.08 14.4287V19.4287C19.08 19.8137 18.62 19.7487 18.3 19.7487V14.0487ZM24.32 15.1287C24.5125 15.1287 24.58 15.2562 24.58 15.4487L24.64 19.7487C24.64 19.9412 24.5125 20.1287 24.32 20.1287C24.1275 20.1287 24 20.0037 24 19.7487V15.4487C24 15.2562 24.1275 15.1287 24.32 15.1287Z"
          fill="white" fill-opacity="0.72"/>
</svg>
