<svg viewBox="0 0 32 32" fill="none" xmlns="http://www.w3.org/2000/svg">
    <g id="icons8-globe 1">
        <path id="Vector"
              d="M16 1.22852C7.84968 1.22852 1.22876 7.84944 1.22876 15.9998C1.22876 24.1501 7.84968 30.771 16 30.771C24.1503 30.771 30.7713 24.1501 30.7713 15.9998C30.7713 7.84944 24.1503 1.22852 16 1.22852ZM15.36 2.58352V8.94102C13.7168 8.90224 12.1545 8.7185 10.7138 8.41727C10.9675 7.64873 11.2558 6.93452 11.5763 6.29352C12.6341 4.17776 13.9759 2.89004 15.36 2.58352ZM16.64 2.58352C18.0241 2.89004 19.3659 4.17776 20.4238 6.29352C20.7453 6.93657 21.0345 7.6534 21.2888 8.42476C19.8498 8.72299 18.2854 8.90305 16.64 8.94102V2.58352ZM12.27 3.03352C11.5754 3.76123 10.9559 4.67166 10.4313 5.72102C10.0656 6.45231 9.74488 7.2591 9.46501 8.11977C8.20861 7.78106 7.07239 7.35488 6.09126 6.85977C7.74241 5.0703 9.8631 3.72329 12.27 3.03352ZM19.73 3.03352C22.1346 3.72263 24.2533 5.0679 25.9038 6.85477C24.9371 7.35891 23.8022 7.78991 22.5388 8.12977C22.2582 7.26531 21.9358 6.45515 21.5688 5.72102C21.0441 4.67166 20.4247 3.76123 19.73 3.03352ZM26.7413 7.85477C28.3394 9.96025 29.3437 12.5416 29.475 15.3598H23.6888C23.642 13.2111 23.3674 11.1824 22.8975 9.36476C24.3336 8.97627 25.6279 8.46719 26.7413 7.85477ZM5.25126 7.86476C6.37667 8.46233 7.67316 8.96539 9.10501 9.35352C8.63337 11.174 8.35807 13.2067 8.31126 15.3598H2.52501C2.65606 12.546 3.65753 9.96846 5.25126 7.86476ZM10.3525 9.65477C11.9092 9.98599 13.5918 10.1832 15.36 10.2223V15.3598H9.59126C9.63887 13.3037 9.90769 11.3676 10.3525 9.65477ZM21.65 9.66352C22.0935 11.3742 22.3612 13.3072 22.4088 15.3598H16.64V10.2223C18.4093 10.1843 20.0938 9.99162 21.65 9.66352ZM2.52501 16.6398H8.31126C8.35797 18.7884 8.6326 20.8171 9.10251 22.6348C7.66647 23.0233 6.37213 23.5323 5.25876 24.1448C3.66061 22.0393 2.65627 19.458 2.52501 16.6398ZM9.59126 16.6398H15.36V21.7773C13.5908 21.8152 11.9063 22.0079 10.35 22.336C9.90651 20.6253 9.63879 18.6924 9.59126 16.6398ZM16.64 16.6398H22.4088C22.3611 18.6958 22.0923 20.6319 21.6475 22.3448C20.0908 22.0135 18.4082 21.8163 16.64 21.7773V16.6398ZM23.6888 16.6398H29.475C29.344 19.4535 28.3425 22.0311 26.7488 24.1348C25.6233 23.5372 24.3269 23.0341 22.895 22.646C23.3666 20.8256 23.642 18.7928 23.6888 16.6398ZM15.36 23.0585V29.416C13.9759 29.1095 12.6341 27.8218 11.5763 25.706C11.2547 25.063 10.9655 24.3461 10.7113 23.5748C12.1502 23.2765 13.7146 23.0965 15.36 23.0585ZM16.64 23.0585C18.2832 23.0973 19.8455 23.281 21.2863 23.5823C21.0326 24.3508 20.7443 25.065 20.4238 25.706C19.3659 27.8218 18.0241 29.1095 16.64 29.416V23.0585ZM9.46126 23.8698C9.74186 24.7342 10.0642 25.5444 10.4313 26.2785C10.9559 27.3279 11.5754 28.2383 12.27 28.966C9.86542 28.2769 7.74674 26.9316 6.09626 25.1448C7.06289 24.6406 8.19785 24.2096 9.46126 23.8698ZM22.535 23.8798C23.7914 24.2185 24.9276 24.6447 25.9088 25.1398C24.2576 26.9292 22.1369 28.2762 19.73 28.966C20.4247 28.2383 21.0441 27.3279 21.5688 26.2785C21.9344 25.5472 22.2551 24.7404 22.535 23.8798Z"
              fill="white" fill-opacity="0.72"/>
    </g>
</svg>
