<svg width="32" height="32" fill="none" xmlns="http://www.w3.org/2000/svg"><path d="M15.617 5.76c-4.225 0-8.192.32-10.305.768-1.407.32-2.625 1.28-2.88 2.752-.255 1.535-.512 3.84-.512 6.72s.255 5.12.575 6.72c.257 1.408 1.472 2.433 2.88 2.753 2.242.447 6.08.767 10.305.767s8.062-.32 10.302-.767c1.41-.32 2.625-1.28 2.88-2.753.258-1.6.578-3.902.64-6.782 0-2.88-.32-5.186-.64-6.785-.255-1.408-1.47-2.433-2.88-2.753-2.24-.32-6.142-.64-10.365-.64zm0 1.28c4.608 0 8.318.383 10.11.703.96.257 1.728.897 1.855 1.73.385 2.047.64 4.224.64 6.464-.062 2.75-.382 4.99-.64 6.59-.19 1.215-1.47 1.6-1.855 1.73-2.305.448-6.145.765-9.985.765S8 24.768 5.76 24.259c-.96-.258-1.728-.898-1.855-1.73C3.392 20.735 3.2 18.367 3.2 16c0-2.945.257-5.12.512-6.462.193-1.218 1.535-1.603 1.855-1.73 2.113-.448 6.018-.768 10.05-.768zm-3.457 3.84v10.24L21.12 16l-8.96-5.12zm1.28 2.177L18.56 16l-5.12 2.942v-5.885z" fill="#fff" fill-opacity="0.72"/></svg>